<?xml version="1.0" encoding="utf-8"?>
<!-- Generator: Adobe Illustrator 25.2.0, SVG Export Plug-In . SVG Version: 6.00 Build 0)  -->
<svg version="1.1" id="Calque_1" xmlns="http://www.w3.org/2000/svg" xmlns:xlink="http://www.w3.org/1999/xlink" x="0px" y="0px"
	 viewBox="0 0 100 125" style="enable-background:new 0 0 100 125;" xml:space="preserve">
<g>
	<path d="M95.2,35.6L94.8,35c-0.7-1.2-2.2-1.6-3.4-1c-0.2,0.1-0.3,0.2-0.5,0.4l-21.2,20L52.1,28.7c-0.8-1.1-2.3-1.4-3.5-0.6
		c-0.3,0.2-0.5,0.4-0.6,0.6L30.3,54.4L9,34.4c-1-0.9-2.6-0.9-3.5,0.1c-0.1,0.2-0.3,0.3-0.4,0.5l-0.4,0.6c-0.3,0.5-0.4,1.2-0.2,1.8
		l8.5,39c0.2,1.2,1.3,2,2.4,2h68.9c1.2,0,2.2-0.8,2.4-2l8.5-39C95.6,36.8,95.5,36.1,95.2,35.6z"/>
	<path d="M87.4,84.9C87,84.1,86,83.5,85,83.6H15c-1-0.1-1.9,0.5-2.4,1.4L8.8,95c-0.2,0.6-0.1,1.2,0.3,1.6c0.5,0.5,1.3,0.8,2,0.8
		h77.7c0.7,0,1.5-0.3,2-0.8c0.5-0.4,0.6-1.1,0.4-1.7L87.4,84.9z"/>
</g>
</svg>
