<?xml version="1.0" encoding="utf-8"?>
<!-- Generator: Adobe Illustrator 25.2.0, SVG Export Plug-In . SVG Version: 6.00 Build 0)  -->
<svg version="1.1" id="Calque_1" xmlns="http://www.w3.org/2000/svg" xmlns:xlink="http://www.w3.org/1999/xlink" x="0px" y="0px"
	 viewBox="0 0 3000 1000" style="enable-background:new 0 0 3000 1000;" xml:space="preserve">
<style type="text/css">
	.st0{fill-rule:evenodd;clip-rule:evenodd;}
</style>
<path id="Fond_2" class="st0" d="M1126,226h109v290c52.3-49.3,104.7-98.7,157-148l130,1c-14.3,14.3-28.7,28.7-43,43l-112,114
	c56.3,72,112.7,144,169,216l0,0c-27,0.2-112.2,0-132,0c-38.3-48-78.7-97-117-145c-17.3,17-34.7,34-52,51v95h-109V226z M141,255
	c224.9-1.3,375-21,461,125c21.9,37.2,38.7,104.1,26,165c-24.1,115.5-98.6,173.5-217,195l-93,2H141V255z M1954,285h109v91h93v84h-93
	c-0.5,39.3-6.8,160.7,7,182c7.9,12.2,27.1,22.4,51,18c13.4-2.5,28.5-9.2,32-13c9.3,26,19.7,52,29,78c-18.1,7.5-33.5,16.7-57,20
	c-30.9,4.4-68.6,1.2-92-7c-99.8-35.2-79.6-147.6-79-278h-58v-84h58V285z M255,349v300c131.5,1.3,213.9,3.5,251-92
	c8.6-22.1,14.3-59.6,8-90c-3.7-18.2-9.5-36-18-50C451.6,343.9,371.6,348.4,255,349z M1707,362c48.2-1.1,131.2,13.9,155,34
	c-12.3,25.7-24.7,51.3-37,77c-33.8-16.5-84.1-36.5-136-25c-17.5,3.9-46.1,11.2-40,37c6.8,28.5,79.6,29.6,111,37
	c65.9,15.5,108.7,33,115,102c5.3,34.9-16.6,66-34,80c-59.2,47.8-164.1,55.9-253,28c-19.4-6.1-35.7-16.8-53-24
	c12.3-26.3,24.7-52.7,37-79c36.2,18.2,88.1,44.7,147.4,37.8c22.2-3,57.9-8.7,50.6-39.8c-5.2-22-37.6-23.6-61-27
	c-54.1-7.9-102.1-16-137-44c-13.8-11-20.4-27.4-25-48c-16.4-73.3,34.2-114.1,83-133c15.8-5.9,32.2-9.6,49-11L1707,362z M2475,362
	v101c-106.9-1.5-123,35.2-123,143v137h-109V368h104v47C2384.2,383.9,2405.8,363,2475,362z M2868,743h-102v-45c-0.7,0.3-1.3,0.7-2,1
	c-17,42.1-96.4,60.1-157,45c-52.8-13.1-85.8-42.8-95-100c-3.3-20.3,3.7-40.2,9-53c31.1-74.7,131.5-69.7,238-69
	c-2.8-104.9-140.2-75.2-193-38c-0.7-0.3-1.3-0.7-2-1c-12.7-25-25.3-50-38-75c16-16.5,44.3-24.5,69-32c98-29.8,210.4-12.2,252,58
	C2881,491.5,2868.2,650.4,2868,743z M700,398h110v344H700V398z M934,398h110v344H934V398z M2759,586c-54.1-1.2-165.1-9.2-138,59
	c11,27.7,61,37.1,95,23C2748.2,654.7,2760.1,633.9,2759,586z"/>
<path id="Fond_1" class="st0" d="M700,268h110c20.3,18.3,41.7,36.7,62,55c1.7-1.7,3.3-3.3,5-5l57-50h110v110H935
	c-9.9-8.9-54.6-47.7-63-55c-19.7,17.7-42.3,37.3-62,55H700V268z"/>
</svg>
