<?xml version="1.0" encoding="utf-8"?>
<!-- Generator: Adobe Illustrator 25.2.0, SVG Export Plug-In . SVG Version: 6.00 Build 0)  -->
<svg version="1.1" id="Capa_1" xmlns="http://www.w3.org/2000/svg" xmlns:xlink="http://www.w3.org/1999/xlink" x="0px" y="0px"
	 viewBox="0 0 748 748" style="enable-background:new 0 0 748 748;" xml:space="preserve">
<style type="text/css">
	.st0{fill:#FFFFFF;}
</style>
<g>
	<g>
		<polygon class="st0" points="680,646 680,0 170,0 170,68 612,68 612,646 		"/>
		<path class="st0" d="M68,109.1v631.7c0,3.9,3.1,7.1,7,7.1h496c3.9,0,7-3.2,7-7.1V109.1c0-3.9-3.1-7.1-7-7.1H75
			C71.1,102,68,105.2,68,109.1z M136,204h374v34H136V204z M136,306h374v34H136V306z M136,408h374v34H136V408z M136,510h374v34H136
			V510z M136,612h238v34H136V612z"/>
	</g>
</g>
</svg>
