<svg id="Calque_1" data-name="Calque 1" xmlns="http://www.w3.org/2000/svg" viewBox="0 0 1269.49 277.75"><defs><style>.cls-1{isolation:isolate;}</style></defs><g id="Calque_2" data-name="Calque 2"><g id="Calque_1-2" data-name="Calque 1-2"><g class="cls-1"><g class="cls-1"><path d="M190.25,132.25q0,37.5-22.25,59.75-25,26.5-65.75,26.5-39,0-66-27T9.25,125q0-39.5,27-66.5t66-27a99.53,99.53,0,0,1,37.25,7q17.49,7,28.75,19.75l-16.5,16.5a55.7,55.7,0,0,0-21.37-15.63,70.87,70.87,0,0,0-28.13-5.62Q73,53.5,52.75,73.75q-20,20.5-20,51.25t20,51.25Q73,196.5,102.25,196.5q26.75,0,44.5-15t20.5-41.25h-65v-21.5H189A77.17,77.17,0,0,1,190.25,132.25Z"/></g><g class="cls-1"><path d="M257,88q25.5,0,40.25,13.62T312,139v75.5H290v-17h-1q-14.25,21-38,21-20.25,0-33.88-12a38.33,38.33,0,0,1-13.62-30q0-19,14.38-30.25T256.25,135q20.49,0,33.75,7.5v-5.25q0-12-9.5-20.37a32.57,32.57,0,0,0-22.25-8.38q-19.26,0-30.5,16.25L207.5,112Q224.24,88,257,88Zm-29.75,89q0,9,7.63,15a28,28,0,0,0,17.87,6q14.49,0,25.87-10.75T290,162q-10.75-8.49-30-8.5-14,0-23.38,6.75T227.25,177Z"/><path d="M361,214.5H338V92h22v17h1q5.25-9,16.12-15a45,45,0,0,1,45.38.25,36.93,36.93,0,0,1,15,17.25Q452.74,88,479.75,88,501,88,512.5,101T524,138v76.5H501v-73q0-17.25-6.25-24.88t-21-7.62q-13.26,0-22.25,11.25a41.16,41.16,0,0,0-9,26.5V214.5h-23v-73q0-17.25-6.25-24.88t-21-7.62Q379,109,370,120.25a41.16,41.16,0,0,0-9,26.5Z"/><path d="M606,218.5q-27,0-44.5-18.5T544,153.25q0-28,17-46.63T604.5,88q27.24,0,43.37,17.62T664,155l-.25,2.5H567.5q.5,18,12,29a38.35,38.35,0,0,0,27.5,11q22,0,34.5-22l20.5,10a61,61,0,0,1-22.88,24.25A63.28,63.28,0,0,1,606,218.5Zm-36.75-80H639.5a30.5,30.5,0,0,0-10.38-21.12Q619.75,109,604,109a33.36,33.36,0,0,0-22.38,8Q572.25,125,569.25,138.5Z"/><path d="M712,214.5H689V35.5h23Z"/><path d="M744,92h22v17h1q5.25-9,16.13-15a46.21,46.21,0,0,1,22.62-6q22.5,0,34.63,12.88t12.12,36.62v77h-23V139q-.75-30-30.25-30-13.74,0-23,11.12T767,146.75V214.5H744Z"/><path d="M883.49,214.5V35.5h64.75q21.25,0,36.5,14Q1000,63.26,1000,84.25q0,26.5-24.25,37.25v1a43.49,43.49,0,0,1,22,15.62A41.52,41.52,0,0,1,1006,163.5q0,22-16,36.5-15.5,14.5-38.25,14.5Zm23-157v54.75h41.75a27.83,27.83,0,0,0,20.5-8.25Q977,95.51,977,84.75q0-10.5-8-19a26.42,26.42,0,0,0-19.75-8.25Zm0,76.25V192.5h46.25A29.45,29.45,0,0,0,982.49,163a28.1,28.1,0,0,0-8.75-20.5q-8.75-8.75-22-8.75Z"/></g><g class="cls-1"><path d="M1021,153.25q0-28.25,17.75-46.75Q1056.74,88,1084,88t45,18.5q18,18.51,18,46.75,0,28.5-18,46.75-17.76,18.51-45,18.5T1038.74,200Q1021,181.51,1021,153.25Zm23,0q0,19.75,11.5,32a39.28,39.28,0,0,0,57,0q11.49-12.24,11.5-32,0-19.5-11.5-31.75Q1100.73,109,1084,109t-28.5,12.5Q1044,133.76,1044,153.25Z"/></g><g class="cls-1"><path d="M1223.74,152.25l43.75,62.25h-27l-30.25-45.25-29.75,45.25h-27l43.25-62.25L1154.49,92h26l30.25,43.25L1239.49,92h27Z"/></g></g></g></g></svg>