<?xml version="1.0" encoding="utf-8"?>
<!-- Generator: Adobe Illustrator 25.2.0, SVG Export Plug-In . SVG Version: 6.00 Build 0)  -->
<svg version="1.1" id="Calque_1" xmlns="http://www.w3.org/2000/svg" xmlns:xlink="http://www.w3.org/1999/xlink" x="0px" y="0px"
	 viewBox="0 0 1269.5 277.8" style="enable-background:new 0 0 1269.5 277.8;" xml:space="preserve">
<style type="text/css">
	.st0{fill:none;stroke:#000000;stroke-miterlimit:10;}
</style>
<g id="Calque_2_1_">
	<g id="Calque_1-2">
		<g>
			<g>
				<path class="st0" d="M190.2,132.2c0,25-7.4,44.9-22.2,59.8c-16.7,17.7-38.6,26.5-65.8,26.5c-26,0-48-9-66-27s-27-40.2-27-66.5
					s9-48.5,27-66.5s40-27,66-27c12.8-0.1,25.4,2.3,37.2,7c11.7,4.7,21.2,11.2,28.8,19.8l-16.5,16.5c-5.8-6.9-13.1-12.2-21.4-15.6
					c-8.9-3.8-18.5-5.7-28.1-5.6c-19.5,0-36,6.8-49.5,20.2c-13.3,13.7-20,30.8-20,51.2s6.7,37.6,20,51.2
					c13.5,13.5,30,20.2,49.5,20.2c17.8,0,32.7-5,44.5-15s18.7-23.8,20.5-41.2h-65v-21.5H189C189.8,123.2,190.2,127.7,190.2,132.2z"
					/>
			</g>
			<g>
				<path class="st0" d="M257,88c17,0,30.4,4.5,40.2,13.6S312,123.2,312,139v75.5h-22v-17h-1c-9.5,14-22.2,21-38,21
					c-13.5,0-24.8-4-33.9-12c-8.8-7.4-13.8-18.5-13.6-30c0-12.7,4.8-22.8,14.4-30.2s22.4-11.2,38.4-11.2c13.7,0,24.9,2.5,33.8,7.5
					v-5.2c0-8-3.2-14.8-9.5-20.4c-6.1-5.5-14-8.5-22.2-8.4c-12.8,0-23,5.4-30.5,16.2L207.5,112C218.7,96,235.2,88,257,88z
					 M227.2,177c0,6,2.5,11,7.6,15c5.1,4,11.4,6.1,17.9,6c9.7,0,18.3-3.6,25.9-10.8S290,171.7,290,162c-7.2-5.7-17.2-8.5-30-8.5
					c-9.3,0-17.1,2.2-23.4,6.8S227.2,170.3,227.2,177z"/>
				<path class="st0" d="M361,214.5h-23V92h22v17h1c3.5-6,8.9-11,16.1-15c14.1-8.1,31.4-8,45.4,0.2c6.7,4,12,10.1,15,17.2
					C447.7,95.8,461.7,88,479.8,88c14.2,0,25.1,4.3,32.8,13c7.7,8.7,11.5,21,11.5,37v76.5h-23v-73c0-11.5-2.1-19.8-6.2-24.9
					c-4.2-5.1-11.2-7.6-21-7.6c-8.8,0-16.3,3.8-22.2,11.2c-6,7.5-9.2,16.9-9,26.5v67.8h-23v-73c0-11.5-2.1-19.8-6.2-24.9
					c-4.2-5.1-11.2-7.6-21-7.6c-8.8,0-16.2,3.8-22.2,11.2c-6,7.5-9.2,16.9-9,26.5V214.5z"/>
				<path class="st0" d="M606,218.5c-18,0-32.8-6.2-44.5-18.5S544,172.1,544,153.2c0-18.7,5.7-34.2,17-46.6S586.8,88,604.5,88
					c18.2,0,32.6,5.9,43.4,17.6S664,133.8,664,155l-0.2,2.5h-96.2c0.3,12,4.3,21.7,12,29c7.3,7.2,17.2,11.2,27.5,11
					c14.7,0,26.2-7.3,34.5-22l20.5,10c-5.2,10.1-13.1,18.4-22.9,24.2C629.1,215.7,617.6,218.7,606,218.5z M569.2,138.5h70.2
					c-0.5-8.1-4.2-15.8-10.4-21.1c-6.2-5.6-14.6-8.4-25.1-8.4c-8.2-0.2-16.2,2.7-22.4,8C575.4,122.3,571.2,129.5,569.2,138.5z"/>
				<path class="st0" d="M712,214.5h-23v-179h23V214.5z"/>
				<path class="st0" d="M744,92h22v17h1c3.5-6,8.9-11,16.1-15c6.9-3.9,14.7-6,22.6-6c15,0,26.5,4.3,34.6,12.9
					c8.1,8.6,12.1,20.8,12.1,36.6v77h-23V139c-0.5-20-10.6-30-30.2-30c-9.2,0-16.8,3.7-23,11.1c-6.2,7.4-9.3,16.3-9.2,26.6v67.8h-23
					V92z"/>
				<path class="st0" d="M883.5,214.5v-179h64.8c14.2,0,26.3,4.7,36.5,14c10.2,9.2,15.3,20.8,15.3,34.8c0,17.7-8.1,30.1-24.2,37.2v1
					c8.8,2.7,16.5,8.2,22,15.6c5.5,7.3,8.4,16.2,8.2,25.4c0,14.7-5.3,26.8-16,36.5c-10.3,9.7-23.1,14.5-38.2,14.5H883.5z
					 M906.5,57.5v54.8h41.8c7.7,0.2,15.1-2.8,20.5-8.2c5.5-5.7,8.3-12.1,8.3-19.2c0-7-2.7-13.3-8-19c-5.1-5.4-12.3-8.4-19.8-8.2
					H906.5z M906.5,133.8v58.8h46.2c16.3,0.2,29.6-12.9,29.7-29.1c0-0.1,0-0.2,0-0.4c0-7.7-3.1-15.2-8.8-20.5
					c-5.8-5.8-13.2-8.8-22-8.8H906.5z"/>
			</g>
			<g>
				<path class="st0" d="M1021,153.2c0-18.8,5.9-34.4,17.8-46.8c12-12.3,27.1-18.5,45.2-18.5s33.2,6.2,45,18.5
					c12,12.3,18,27.9,18,46.8c0,19-6,34.6-18,46.8c-11.8,12.3-26.8,18.5-45,18.5s-33.2-6.2-45.3-18.5
					C1026.9,187.7,1021,172.1,1021,153.2z M1044,153.2c0,13.2,3.8,23.8,11.5,32c14.9,15.7,39.8,16.4,55.5,1.5c0.5-0.5,1-1,1.5-1.5
					c7.7-8.2,11.5-18.8,11.5-32c0-13-3.8-23.6-11.5-31.8c-7.8-8.3-17.3-12.5-28.5-12.5s-20.7,4.2-28.5,12.5
					C1047.8,129.7,1044,140.3,1044,153.2z"/>
			</g>
			<g>
				<path class="st0" d="M1223.7,152.2l43.8,62.2h-27l-30.2-45.2l-29.8,45.2h-27l43.2-62.2L1154.5,92h26l30.2,43.2l28.8-43.2h27
					L1223.7,152.2z"/>
			</g>
		</g>
	</g>
</g>
</svg>
