<?xml version="1.0" encoding="utf-8"?>
<!-- Generator: Adobe Illustrator 25.2.0, SVG Export Plug-In . SVG Version: 6.00 Build 0)  -->
<svg version="1.1" id="Layer_1" xmlns="http://www.w3.org/2000/svg" xmlns:xlink="http://www.w3.org/1999/xlink" x="0px" y="0px"
	 viewBox="0 0 330 330" style="enable-background:new 0 0 330 330;" xml:space="preserve">
<style type="text/css">
	.st0{fill:#FFFFFF;}
</style>
<g id="XMLID_106_">
	<path id="XMLID_107_" class="st0" d="M324,33c-3.8-2.8-8.7-3.7-13.3-2.3L230,54.9v271.3l89.3-26.8c6.3-1.9,10.7-7.7,10.7-14.4V45
		C330,40.3,327.8,35.8,324,33z"/>
	<path id="XMLID_108_" class="st0" d="M172.7,32.1L130,6.5v275l70,42v-275L172.7,32.1C172.7,32.2,172.7,32.2,172.7,32.1z"/>
	<path id="XMLID_109_" class="st0" d="M0,45v240c0,4.7,2.2,9.2,6,12c2.6,1.9,5.8,3,9,3c1.4,0,2.9-0.2,4.3-0.6l80.7-24.2V3.8
		L10.7,30.6C4.3,32.5,0,38.4,0,45z"/>
</g>
</svg>
