<?xml version="1.0" encoding="utf-8"?>
<!-- Generator: Adobe Illustrator 25.3.1, SVG Export Plug-In . SVG Version: 6.00 Build 0)  -->
<svg version="1.1"
	 id="Calque_1" xmlns:cc="http://creativecommons.org/ns#" xmlns:dc="http://purl.org/dc/elements/1.1/" xmlns:rdf="http://www.w3.org/1999/02/22-rdf-syntax-ns#"
	 xmlns="http://www.w3.org/2000/svg" xmlns:xlink="http://www.w3.org/1999/xlink" x="0px" y="0px" viewBox="0 0 467.4 155.8"
	 style="enable-background:new 0 0 467.4 155.8;" xml:space="preserve">
<style type="text/css">
	.st0{fill:#A41E11;}
	.st1{fill:#D82C20;}
	.st2{fill:#FFFFFF;}
	.st3{fill:#7A0C00;}
	.st4{fill:#AD2115;}
</style>
<g transform="translate(-166.32586,-222.11295)">
	<path class="st0" d="M478.4,339.5c-9.1,4.7-56.1,24.1-66.1,29.3c-10,5.2-15.6,5.2-23.5,1.4c-7.9-3.8-58-24-67-28.3
		c-4.5-2.2-6.9-4-6.9-5.7V319c0,0,65.2-14.2,75.7-18c10.5-3.8,14.2-3.9,23.1-0.6c9,3.3,62.5,12.9,71.3,16.2c0,0,0,15.4,0,17
		C485.1,335.3,483,337.1,478.4,339.5L478.4,339.5z"/>
	<path class="st1" d="M478.4,322.3c-9.1,4.7-56.1,24.1-66.1,29.3c-10,5.2-15.6,5.2-23.5,1.4c-7.9-3.8-58-24-67-28.3
		c-9-4.3-9.2-7.3-0.3-10.7c8.9-3.5,58.6-23,69.1-26.8c10.5-3.8,14.2-3.9,23.1-0.6c9,3.3,55.7,21.9,64.5,25.1
		C487.1,314.9,487.5,317.6,478.4,322.3L478.4,322.3z"/>
	<path class="st0" d="M478.4,311.5c-9.1,4.7-56.1,24.1-66.1,29.3c-10,5.2-15.6,5.2-23.5,1.4c-7.9-3.8-58-24-67-28.3
		c-4.5-2.2-6.9-4-6.9-5.7V291c0,0,65.2-14.2,75.7-18c10.5-3.8,14.2-3.9,23.1-0.6c9,3.3,62.5,12.9,71.3,16.2c0,0,0,15.4,0,17
		C485.1,307.2,483,309.1,478.4,311.5z"/>
	<path class="st1" d="M478.4,294.3c-9.1,4.7-56.1,24.1-66.1,29.3c-10,5.2-15.6,5.2-23.5,1.4c-7.9-3.8-58-24-67-28.3
		c-9-4.3-9.2-7.3-0.3-10.7c8.9-3.5,58.6-23,69.1-26.8c10.5-3.8,14.2-3.9,23.1-0.6c9,3.3,55.7,21.9,64.5,25.1
		C487.1,286.9,487.5,289.6,478.4,294.3L478.4,294.3z"/>
	<path class="st0" d="M478.4,282.4c-9.1,4.7-56.1,24.1-66.1,29.3c-10,5.2-15.6,5.2-23.5,1.4c-7.9-3.8-58-24-67-28.3
		c-4.5-2.2-6.9-4-6.9-5.7v-17.2c0,0,65.2-14.2,75.7-18c10.5-3.8,14.2-3.9,23.1-0.6c9,3.3,62.5,12.9,71.3,16.2c0,0,0,15.4,0,17
		C485.1,278.1,483,280,478.4,282.4L478.4,282.4z"/>
	<path class="st1" d="M478.4,265.2c-9.1,4.7-56.1,24.1-66.1,29.3c-10,5.2-15.6,5.2-23.5,1.4c-7.9-3.8-58-24-67-28.3
		c-9-4.3-9.2-7.3-0.3-10.7c8.9-3.5,58.6-23,69.1-26.8c10.5-3.8,14.2-3.9,23.1-0.6c9,3.3,55.7,21.9,64.5,25.1
		C487.1,257.8,487.5,260.5,478.4,265.2L478.4,265.2z"/>
	<polygon class="st2" points="422.3,248.7 407.6,250.2 404.3,258.1 398.9,249.3 381.9,247.7 394.6,243.2 390.8,236.1 402.7,240.8 
		413.9,237.1 410.9,244.4 	"/>
	<polygon class="st2" points="403.4,287.2 375.9,275.8 415.3,269.7 	"/>
	<ellipse class="st2" cx="365.2" cy="261.2" rx="21.1" ry="8.2"/>
	<polygon class="st3" points="439.7,250.8 463,260 439.7,269.3 	"/>
	<polygon class="st4" points="413.9,261 439.7,250.8 439.7,269.3 437.2,270.2 	"/>
</g>
</svg>
