<?xml version="1.0" encoding="utf-8"?>
<!-- Generator: Adobe Illustrator 25.2.0, SVG Export Plug-In . SVG Version: 6.00 Build 0)  -->
<svg version="1.1" id="Capa_1" xmlns="http://www.w3.org/2000/svg" xmlns:xlink="http://www.w3.org/1999/xlink" x="0px" y="0px"
	 viewBox="0 0 478 478" style="enable-background:new 0 0 478 478;" xml:space="preserve">
<style type="text/css">
	.st0{fill:#FFFFFF;}
</style>
<g>
	<g>
		<path class="st0" d="M119.5,187.7H17.1c-9.4,0-17,7.6-17.1,17.1v256c0,9.5,7.7,17.1,17.1,17.1h102.4c9.5,0,17.1-7.7,17.1-17.1
			v-256C136.6,195.3,128.9,187.7,119.5,187.7z"/>
	</g>
</g>
<g>
	<g>
		<path class="st0" d="M290.2,0H187.8c-9.4,0-17.1,7.6-17.1,17v443.8c0,9.5,7.7,17.1,17.1,17.1h102.4c9.5,0,17.1-7.7,17.1-17.1V17.1
			C307.3,7.6,299.6,0,290.2,0z"/>
	</g>
</g>
<g>
	<g>
		<path class="st0" d="M460.9,136.5H358.5c-9.5,0-17.1,7.6-17.1,17.1v307.2c0,9.5,7.7,17.1,17.1,17.1h102.4
			c9.5,0,17.1-7.7,17.1-17.1V153.7C478,144.1,470.3,136.5,460.9,136.5z"/>
	</g>
</g>
</svg>
