<svg xmlns="http://www.w3.org/2000/svg" viewBox="0 0 366.18 401.59"><g id="Calque_2" data-name="Calque 2"><g id="Calque_1-2" data-name="Calque 1"><path d="M366,61.51v-1.3l-10.76-3.7L179,137.3l8.34,18.18L346,82.73l.14,222.73L179.45,381.52l8.3,18.19,178.43-81.4-.16-252C366,64.71,366.05,63.12,366,61.51Z"/><path d="M193.61,397,193.14,140,11,56.89c-1.41.5-2.81,1-4.17,1.46-2.26.76-4.46,1.53-6.66,2.28v9.61a15.92,15.92,0,0,1,0,2.49L.21,318.09l183.35,83.5M20.13,83.05l153,69.77.41,222.24L20.21,305.22Z"/><path d="M0,73.94l183.2,83.53L366,73.68c0-.18,0-.56,0-.74a122.86,122.86,0,0,1,0-12.73,101.93,101.93,0,0,1-11.29-3.93L183.64,0,12,56.45c-1.82.75-3.49,1.42-5.18,2m176.35,77L37.58,69.1l146.06-48L328.71,68.78Z"/></g></g></svg>