<svg id="Calque_1" data-name="Calque 1" xmlns="http://www.w3.org/2000/svg" xmlns:xlink="http://www.w3.org/1999/xlink" viewBox="0 0 1920 1080"><defs><style>.cls-1{fill:url(#Dégradé_sans_nom_37);}.cls-2{fill:url(#Dégradé_sans_nom_45);}.cls-3{fill:url(#Dégradé_sans_nom_45-2);}.cls-4{fill:url(#Dégradé_sans_nom_45-3);}.cls-5{fill:url(#Dégradé_sans_nom_45-4);}</style><radialGradient id="Dégradé_sans_nom_37" cx="960.5" cy="539.5" r="778.85" gradientUnits="userSpaceOnUse"><stop offset="0" stop-color="#112d58"/><stop offset="0.17" stop-color="#0e264c"/><stop offset="0.71" stop-color="#041327"/><stop offset="1" stop-color="#000b19"/></radialGradient><radialGradient id="Dégradé_sans_nom_45" cx="523.86" cy="706.5" r="376.62" gradientUnits="userSpaceOnUse"><stop offset="0" stop-color="#1e4ffe"/><stop offset="1" stop-color="#112d58"/></radialGradient><radialGradient id="Dégradé_sans_nom_45-2" cx="1317.38" cy="880.4" r="366.29" xlink:href="#Dégradé_sans_nom_45"/><radialGradient id="Dégradé_sans_nom_45-3" cx="1381.15" cy="148.12" r="402.43" xlink:href="#Dégradé_sans_nom_45"/><radialGradient id="Dégradé_sans_nom_45-4" cx="108.09" cy="59.11" r="235.75" xlink:href="#Dégradé_sans_nom_45"/></defs><rect class="cls-1" x="0.5" y="-0.5" width="1920" height="1080"/><path class="cls-2" d="M348.5,581.5c-24.54,73.77-31.55,65.41-73,175-55.9,147.79-54,191.74-50,219,3.45,23.31,11.94,80.72,53,121,85.63,84,274.25,55.58,385-36,92.85-76.78,112.18-182.42,139-329,22-120,41.32-225.8-18-327-16.61-28.34-88.26-139.69-200-138C483,268,417.67,361.89,408.5,375.5,369.62,433.2,390.15,456.28,348.5,581.5Z"/><path class="cls-3" d="M1685.5,1097.5c88-88.73,100.21-269.57,21-364-32.58-38.84-69.9-50.26-302-84-381.4-55.45-428.9-46.18-467-10-67,63.65-76.5,183.57-44,270,32.33,86,103,130.21,125,144,52.89,33.11,102.18,42.46,128,47C1450.83,1154,1603,1180.73,1685.5,1097.5Z"/><path class="cls-4" d="M935.5-56.5c-77.68,108.65-36.55,297,61,398,73.52,76.13,231.35,83.76,547,99,193.86,9.36,234.37-1.13,266-31,94.47-89.21,69.35-313.2-46-436-92.44-98.42-217.81-105.2-399-115C1165.56-152.26,1010-160.68,935.5-56.5Z"/><path class="cls-5" d="M312.5-74.5c11.08,49.31-53.79,118.54-184,255-94.91,99.47-143,149-172,140-66.31-20.58-69.94-225.09-20-376,18.2-55,33.67-99.61,77-126C112.12-241.56,291.38-168.45,312.5-74.5Z"/></svg>